       <svg
              viewBox="0 0 112 89"
              fill="none"
           
              xmlns="http://www.w3.org/2000/svg"
            >
              <path
                fill-rule="evenodd"
                clip-rule="evenodd"
                d="M29.2047 87.8602L29.1886 87.8576C27.6837 87.61 26.0458 86.8946 24.2991 85.8204C16.6126 81.6003 10.5761 76.5061 6.24234 70.5168L6.23252 70.5033L6.22303 70.4895C2.06323 64.4381 0 57.429 0 49.514C0 43.445 1.75709 37.2176 5.19722 30.8478C8.66175 24.225 13.8394 18.2787 20.6853 12.9992L20.6935 12.9929L20.7018 12.9866C27.8107 7.67048 36.8074 3.66757 47.6438 0.940917L49.3961 0.5V10.4399L48.4244 10.751C40.8174 13.1864 34.7196 16.6139 30.0761 20.9983L30.0643 21.0095L30.0523 21.0203C25.4682 25.1519 23.2704 29.7685 23.2704 34.9103C23.2704 38.5778 24.2412 41.9392 26.1881 45.0244C28.3069 48.0528 32.1532 51.0213 37.9172 53.8662L37.9318 53.8734L49.3214 59.8256L49.7397 64.3681L41.7127 81.1664C39.7179 85.5356 36.8229 88.1871 32.882 88.1871C31.9443 88.1871 30.7139 88.073 29.2208 87.8625L29.2047 87.8602ZM40.4365 80.5857L48.3057 64.1177L47.9909 60.6998L37.2888 55.1069C31.4131 52.2069 27.3211 49.0997 25.0128 45.7854C22.9144 42.4711 21.8651 38.8461 21.8651 34.9103C21.8651 29.3174 24.2784 24.346 29.1048 19.9959C33.9312 15.4387 40.2266 11.9173 47.9909 9.43155V2.28507C47.5188 2.40385 47.0504 2.52506 46.5857 2.64868C36.5149 5.32758 28.1698 9.14213 21.5504 14.0923C14.8353 19.2709 9.79903 25.071 6.4415 31.4925C3.08398 37.7068 1.40521 43.714 1.40521 49.514C1.40521 57.1784 3.39875 63.9106 7.38581 69.7106C11.5827 75.5107 17.4584 80.4821 25.0128 84.625C26.6916 85.6607 28.1605 86.2822 29.4196 86.4893C30.8885 86.6965 32.0426 86.8 32.882 86.8C36.0297 86.8 38.5479 84.7286 40.4365 80.5857ZM90.8992 87.8602L90.8831 87.8576C89.3783 87.61 87.7404 86.8946 85.9937 85.8204C78.3072 81.6003 72.2707 76.5061 67.9369 70.5168L67.9271 70.5033L67.9176 70.4895C63.7578 64.4381 61.6945 57.429 61.6945 49.514C61.6945 43.4451 63.4516 37.2178 66.8916 30.8481C70.3561 24.2252 75.5338 18.2788 82.3798 12.9992L82.388 12.9929L82.3964 12.9866C89.5052 7.67048 98.502 3.66757 109.338 0.940917L111.091 0.5V10.4399L110.119 10.751C102.512 13.1864 96.4141 16.6139 91.7707 20.9983L91.7589 21.0095L91.7468 21.0203C87.1628 25.1519 84.9649 29.7685 84.9649 34.9103C84.9649 38.5778 85.9357 41.9393 87.8827 45.0245C90.0016 48.0529 93.8479 51.0214 99.6117 53.8662L99.6264 53.8734L111.016 59.8256L111.434 64.3681L103.407 81.1662C101.413 85.5355 98.5175 88.1871 94.5766 88.1871C93.6388 88.1871 92.4084 88.073 90.9154 87.8625L90.8992 87.8602ZM102.131 80.5857L110 64.1177L109.685 60.6998L98.9833 55.1069C93.1076 52.2069 89.0157 49.0997 86.7074 45.7854C84.6089 42.4711 83.5597 38.8461 83.5597 34.9103C83.5597 29.3174 85.9729 24.346 90.7993 19.9959C95.6258 15.4387 101.921 11.9173 109.685 9.43155V2.28507C109.213 2.40385 108.745 2.52506 108.28 2.64868C98.2094 5.32758 89.8644 9.14213 83.2449 14.0923C76.5299 19.2709 71.4936 25.071 68.136 31.4925C64.7785 37.7068 63.0998 43.714 63.0998 49.514C63.0998 57.1784 65.0933 63.9106 69.0803 69.7106C73.2773 75.5107 79.1529 80.4821 86.7074 84.625C88.3861 85.6607 89.855 86.2822 91.1141 86.4893C92.583 86.6965 93.7372 86.8 94.5766 86.8C97.7243 86.8 100.242 84.7286 102.131 80.5857Z"
                fill="#FF7350"
              />
            </svg>